# xmcd CD database file
#
# Track frame offsets:
#	150
#	34551
#	66558
#	109624
#	148241
#	162437
#	195875
#	225357
#	238936
#
# Disc length: 3514 seconds
#
# Revision: 0
# Processed by: cddbd v1.5.2PL0 Copyright (c) Steve Scherf et al.
# Submitted via: CDex 1.51
#
DISCID=760db809
DTITLE=Sacred Earth -  Bhakti
DYEAR=2009
DGENRE=New Age
TTITLE0=Sacred Earth - Gayatri Mantra
TTITLE1=Sacred Earth - Bhakti Heenam
TTITLE2=Sacred Earth - Buddha's Blessing
TTITLE3=Sacred Earth - Govinda Jai
TTITLE4=Sacred Earth - Vishnu's Prayer
TTITLE5=Sacred Earth - Bhakti Jai
TTITLE6=Grandmother Moon
TTITLE7=Sacred Earth - Interlude
TTITLE8=Sacred Earth - Twa Meva
EXTD=YEAR: 2009
EXTT0=
EXTT1=
EXTT2=
EXTT3=
EXTT4=
EXTT5=
EXTT6=
EXTT7=
EXTT8=
PLAYORDER=
